<svg width="300" height="196" viewBox="0 0 300 196" fill="none" xmlns="http://www.w3.org/2000/svg">
<path d="M290.224 27.6501H252C247.975 27.6501 244.514 30.0939 243.017 33.571C238.166 32.5349 231.558 30.524 224.64 28.4101C213.655 25.0523 201.02 21.2021 188.124 18.717C182.273 6.49487 163.906 0.00317383 134.297 0.00317383C118.228 0.00317383 98.874 7.98489 81.7967 15.0253C72.2702 18.9516 63.1918 22.68 56.6893 24.1555C55.0737 20.9816 51.8062 18.7794 48.0027 18.7794H9.77619C4.38582 18.7794 0 23.1592 0 28.5386V123.454C0 128.834 4.38582 133.214 9.77619 133.214H48.0027C48.3733 133.214 48.7251 133.144 49.0852 133.104L71.5078 156.82C80.4783 166.316 90.9431 174.11 102.618 179.982L131.016 194.272C133.321 195.436 135.797 196.003 138.249 196.003C142.07 196.003 145.837 194.629 148.843 191.969C151.565 189.561 153.292 186.298 153.921 182.796L166.605 188.905C168.932 190.027 171.419 190.565 173.883 190.565C178.661 190.565 183.352 188.536 186.612 184.753C189.452 181.463 190.781 177.247 190.56 172.966C191.676 173.146 192.794 173.303 193.905 173.303C200.959 173.303 207.723 169.731 211.679 163.386C213.424 160.586 214.375 157.48 214.678 154.296C217.844 155.955 221.287 156.808 224.727 156.808C231.044 156.808 237.293 154.1 241.541 149.019C243.756 146.366 245.198 143.234 245.957 139.937C247.626 141.26 249.708 142.084 252 142.084H290.224C295.614 142.084 300 137.704 300 132.325V37.4092C300 32.0294 295.614 27.6501 290.224 27.6501ZM45.7794 121.238H11.9999V30.7549H45.7794V121.238ZM232.324 141.347C229.245 145.037 223.82 145.944 219.709 143.446L169.116 112.794C166.28 111.07 162.595 111.976 160.872 114.806C159.152 117.63 160.055 121.314 162.888 123.028L182.557 134.944C182.56 134.946 182.561 134.949 182.564 134.95L198.519 144.616C200.593 145.873 202.043 147.861 202.609 150.218C203.171 152.575 202.772 155.001 201.489 157.059C199.125 160.866 194.414 162.34 190.298 160.58L169.459 151.681L149.519 139.821C146.675 138.131 142.992 139.055 141.293 141.903C139.596 144.745 140.529 148.417 143.373 150.112L176.35 169.725C178.013 170.713 178.485 172.234 178.62 173.058C178.752 173.877 178.787 175.467 177.519 176.935C176.107 178.572 173.757 179.046 171.82 178.122L141.899 163.715L132.524 158.392C129.639 156.761 125.976 157.761 124.342 160.638C122.704 163.509 123.709 167.164 126.589 168.801L140.206 176.531C141.346 177.18 142.075 178.291 142.213 179.595C142.348 180.894 141.864 182.139 140.883 183.01C139.647 184.098 137.898 184.332 136.418 183.583L108.02 169.292C97.5965 164.047 88.2479 157.083 80.2382 148.604L57.6522 124.71C57.7064 124.294 57.7793 123.884 57.7793 123.454V36.138C65.641 34.6172 75.4064 30.618 86.3789 26.0943C102.425 19.4753 120.609 11.9787 134.297 11.9787C148.105 11.9787 159.11 13.5144 166.713 16.2328C165.736 16.2037 164.748 16.1188 163.779 16.1188C130.506 16.1188 72.3544 40.3972 69.8935 41.4263C67.6697 42.3618 66.2225 44.5374 66.2225 46.9463C66.2225 58.9862 74.3673 69.6814 86.0275 72.9559C100.16 76.9206 120.92 79.1423 141.334 68.1726L230.209 126.934C232.562 128.489 234.085 130.88 234.492 133.67C234.902 136.459 234.132 139.184 232.324 141.347ZM236.836 116.946L144.87 56.1443C142.931 54.8639 140.411 54.8111 138.419 56.0332C120.659 66.9039 101.886 64.9684 89.2791 61.4247C84.0438 59.9571 80.0798 55.8169 78.7264 50.7708C92.6075 45.2391 137.751 28.0943 163.779 28.0943C182.651 28.0943 203.985 34.6201 221.124 39.8593C229.53 42.4321 236.606 44.5686 242.224 45.5989V122.198C240.729 120.184 238.97 118.358 236.836 116.946ZM288 130.109H254.224V39.6256H288V130.109Z" fill="white"/>
</svg>
