<svg width="50" height="49" viewBox="0 0 50 49" fill="none" xmlns="http://www.w3.org/2000/svg">
<g clip-path="url(#clip0_44_221)">
<path d="M12.7876 20.4116C15.9281 21.1913 19.2384 19.2931 22.1134 21.2093C22.8457 20.8275 23.4831 20.3845 24.3024 20.1841C27.9501 19.2891 31.7533 21.1552 35.4536 20.3454C35.7011 20.2913 36.9799 19.9556 37.086 19.8644C37.1719 19.7912 37.2719 18.9664 37.4658 18.6417C38.2002 17.412 40.8327 16.8558 42.0206 16.0601C42.5692 15.8787 43.1237 16.1222 43.1904 16.7085C43.2692 17.41 42.4732 17.6385 41.96 17.8991C41.4469 18.1597 39.0316 19.1057 38.873 19.4365C38.6427 19.9185 39.074 20.608 39.2851 21.0811C40.7478 24.3662 42.4732 28.2006 44.1571 31.3515C44.3965 31.7995 44.5491 32.2194 45.1764 32.0971L49.1352 30.3082C49.9817 30.2701 50.3262 31.2954 49.6221 31.8005C49.1625 32.1302 46.4482 33.3709 45.8542 33.5633C45.4956 33.6796 45.1845 33.7417 44.8006 33.7156C44.4491 33.6926 43.6945 33.3208 43.6056 33.3358C43.5167 33.3508 42.4621 34.0624 42.1621 34.2017C41.6408 34.4422 41.0792 34.5825 40.5539 34.812C41.1721 36.7453 40.2023 38.7366 38.1032 39.0262C38.3467 40.9545 37.2254 42.3956 35.3121 42.7133C35.5819 44.9191 33.6191 46.6389 31.4402 46.0175C31.3533 48.077 29.533 49.438 27.5066 48.8687C26.7571 48.6583 25.0105 47.3474 24.6267 47.3153C24.4276 47.2983 23.9983 47.632 23.7316 47.7232C22.3841 48.1822 21.1426 47.6821 20.3931 46.5116C18.6526 47.5859 16.5282 46.9465 15.9191 44.9602C14.3755 45.314 12.8522 44.4371 12.4835 42.9167C10.0914 43.512 8.23576 41.2641 9.20855 39.0162C9.31259 38.7757 9.72575 38.2806 9.72575 38.0661C9.72575 37.9689 9.24289 37.0189 9.15703 36.7673C8.88833 35.9836 8.61255 34.5384 8.05292 33.9612C7.95291 33.858 6.85184 33.0392 6.77406 33.0261C6.69627 33.0131 5.82248 33.6244 5.35175 33.6886C3.86883 33.889 1.77981 32.2625 0.350434 31.8015C-0.321324 31.1971 0.0322326 30.3002 0.932287 30.3152L4.7204 32.07C4.99415 32.1763 5.26689 32.1061 5.48105 31.9177C7.18216 28.2968 9.06207 24.734 10.6884 21.08C10.947 20.4998 11.537 19.6199 10.844 19.1899C9.9197 18.5756 7.86099 18.0815 7.09024 17.413C6.34373 16.7656 7.04377 15.7213 7.95292 16.0581C9.78131 17.2216 13.2623 17.5143 12.7896 20.4106L12.7876 20.4116ZM37.4658 21.4308C36.9769 21.4719 36.1445 21.8477 35.5728 21.964C31.9736 22.7016 27.5046 20.8044 24.4256 21.8076C23.7054 22.0422 19.2122 24.6518 18.6303 25.16C18.3667 25.3905 16.412 28.1345 16.2928 28.4421C15.7807 29.764 17.402 30.1739 18.4313 29.764C19.5617 29.314 20.0829 27.5512 20.9567 26.9689C21.2244 26.7905 23.1528 26.089 23.4134 26.115C23.6316 26.1371 23.7791 26.2734 23.9307 26.4097C24.566 26.9829 25.1398 27.8278 25.8449 28.4111C28.141 30.3142 31.2574 30.8664 34.1828 30.5327L39.175 33.3929C39.6963 33.6214 42.6894 32.2665 42.7156 31.9678L37.779 21.5721L37.6224 21.4238C37.5689 21.4068 37.5173 21.4258 37.4648 21.4308H37.4658ZM20.4486 22.1143C17.6858 21.4889 14.8543 22.8419 12.0835 21.8126L7.44379 31.6141C8.82974 32.3837 9.57018 33.0041 10.1399 34.4923C10.2541 34.79 10.6036 36.2492 10.6703 36.3173C10.8278 36.4777 10.848 36.2512 10.8945 36.187C11.138 35.8393 11.2986 35.4083 11.5794 35.0696C13.0401 33.3067 15.8665 33.9 16.4251 36.1079C17.7949 35.8643 18.9101 36.2833 19.6637 37.4458C19.7698 37.6091 19.8415 38.004 19.9405 38.0722C20.1648 38.2255 20.4688 38.008 20.7012 38.017C21.6659 38.0551 22.4871 38.5452 23.0124 39.3249C23.1195 39.4842 23.3518 40.0775 23.3892 40.1006C23.571 40.2138 23.9337 40.0274 24.1297 40.0374C26.254 40.1467 27.4793 42.0769 26.6732 44.0402C26.5359 44.3759 25.558 45.784 25.5994 45.9584C26.3025 46.3372 27.5915 47.3985 28.3673 47.4236C29.2865 47.4526 29.9613 46.5948 29.7815 45.7138C29.5138 44.405 27.1531 44.2246 27.2056 43.1763C27.2369 42.5509 27.842 42.3154 28.3885 42.4958C29.2865 42.7915 31.0947 44.3759 31.8978 44.5132C33.4211 44.7738 34.2575 43.3266 33.3191 42.1531L29.7219 39.9703C29.1784 39.2557 29.7866 38.3949 30.6371 38.6624L34.6374 40.9945C35.9425 41.3663 37.0476 39.9713 36.2779 38.8669C35.6697 37.994 33.2858 37.1441 32.3938 36.4185C31.7705 35.707 32.314 34.773 33.2585 35.0616C34.2767 35.3733 35.8839 36.7954 36.9951 37.2544C38.7487 37.978 39.9559 35.9866 38.3679 34.792C37.877 34.4232 34.3454 32.2955 33.9292 32.1903C33.5131 32.0851 32.2544 32.2504 31.6867 32.2184C28.3178 32.028 25.1913 30.5417 23.1064 27.905C21.7093 28.0112 21.4962 28.9923 20.7497 29.8612C19.5668 31.2392 17.9475 32.039 16.1453 31.2332C14.7574 30.6129 14.2159 29.0795 14.8493 27.7085C15.117 27.1303 16.9615 24.5246 17.4212 24.0586C18.1818 23.2849 19.6607 22.9131 20.4496 22.1133L20.4486 22.1143ZM13.6735 35.6368C13.233 35.6749 13.0068 35.9034 12.7451 36.2251C12.4572 36.5799 10.7056 39.4842 10.6167 39.814C10.248 41.1739 11.8016 42.0077 12.6865 40.9675C12.9583 40.6478 14.7584 37.6502 14.8594 37.3215C15.1129 36.4917 14.6038 35.5567 13.6745 35.6368H13.6735ZM17.0989 37.6352C16.7494 37.6743 16.3767 37.9459 16.1706 38.2235C15.8443 39.1475 13.9705 41.4355 13.9917 42.2633C14.022 43.4469 15.418 43.8458 16.215 42.8676C16.5999 42.3946 18.1252 39.7929 18.3091 39.2437C18.5859 38.4149 18.0121 37.533 17.0999 37.6342L17.0989 37.6352ZM20.6264 39.6406C20.3072 39.6576 19.9536 39.828 19.7415 40.0665C19.4506 40.3942 17.7444 43.2865 17.5767 43.7195C17.0787 45.0053 18.4879 45.9945 19.5415 45.0694C19.9728 44.0031 21.5547 42.2222 21.8123 41.221C22.0144 40.4353 21.4679 39.5955 20.6264 39.6406ZM24.0529 41.6379C23.9216 41.65 23.6589 41.7612 23.5397 41.8324C23.1458 42.0669 21.8396 44.2186 21.6871 44.6976C21.2749 45.9914 22.776 46.8804 23.7296 45.8221C23.9246 45.6056 25.2176 43.4629 25.2671 43.2475C25.4479 42.4688 24.8954 41.5608 24.0529 41.6379Z" fill="white"/>
<path d="M24.7558 0.0270705C24.9821 -0.0230389 25.1508 -0.00199298 25.363 0.0841952C25.766 0.247552 26.5519 0.986165 27.0984 1.26277C28.0934 1.76787 29.3874 2.13968 30.4946 2.29402C31.0401 2.37019 32.031 2.32609 32.4513 2.45337C32.9139 2.59368 33.0604 3.13185 33.0594 3.55979C33.0483 8.48053 31.0148 14.6019 26.464 17.1294C25.0872 17.8941 24.8831 17.8941 23.5053 17.1294C18.9504 14.5989 16.922 8.48354 16.9099 3.55979C16.9089 3.1078 17.0251 2.70592 17.4493 2.48544C19.6444 2.3752 21.6021 2.0104 23.5032 0.889955C23.8336 0.69553 24.475 0.0912105 24.7548 0.0280727L24.7558 0.0270705ZM31.3229 4.0228C29.0703 3.75922 26.8479 3.20301 25.0215 1.81898C23.1083 3.14488 20.9607 3.78127 18.6484 4.0228C18.5999 8.14981 20.2121 12.9653 23.7447 15.3926C23.9528 15.5349 24.9296 16.1172 25.0801 16.0661C29.44 13.7891 31.3532 8.71304 31.3229 4.0238V4.0228Z" fill="white"/>
<path d="M26.7741 6.92615C27.361 6.80489 27.9429 7.39217 27.7156 7.95941C26.8812 9.12796 25.7922 10.1291 24.8225 11.1975C24.5295 11.3729 24.2345 11.3498 23.9406 11.1975C23.7992 11.1243 22.4092 9.75132 22.3233 9.60099C22.1021 9.21816 22.195 8.81127 22.5708 8.56373C23.5143 7.94337 23.9679 9.43864 24.4194 9.30334C24.5184 9.27328 25.5912 7.96041 25.7912 7.75596C26.0124 7.53047 26.4973 6.98328 26.7751 6.92615H26.7741Z" fill="white"/>
</g>
<defs>
<clipPath id="clip0_44_221">
<rect width="50" height="49" fill="white"/>
</clipPath>
</defs>
</svg>
