<svg width="219" height="308" viewBox="0 0 219 308" fill="none" xmlns="http://www.w3.org/2000/svg">
<path fill-rule="evenodd" clip-rule="evenodd" d="M143.061 164.835C140.721 164.835 113.549 147.2 109.41 144.68L77.7387 164.295C75.0394 165.915 71.6204 163.395 72.3402 160.336L81.3377 124.166L52.7256 100.053C50.3862 97.8932 51.6458 93.9343 54.885 93.7544L91.9548 90.8752L106.171 56.5046C107.431 53.4454 111.569 53.4454 112.829 56.5046L126.865 90.8752L164.115 93.7544C167.354 93.9343 168.614 97.8932 166.094 100.053L137.662 124.166L146.66 160.336C147.2 162.675 145.4 164.835 143.061 164.835ZM109.41 136.763C111.749 136.763 133.883 151.159 137.482 153.498L130.104 123.626C129.924 122.367 130.284 120.927 131.364 120.027L154.758 100.233L124.166 97.8932C122.726 97.8932 121.647 96.9935 121.107 95.7338L109.41 67.3016L97.8932 95.7338C97.3533 96.9935 96.0937 97.8932 94.834 97.8932L64.0624 100.233L87.636 120.027C88.7157 120.927 89.0756 122.367 88.7157 123.626L81.5177 153.498C85.1167 151.159 107.251 136.763 109.41 136.763Z" fill="white"/>
<path fill-rule="evenodd" clip-rule="evenodd" d="M48.5867 269.206C45.8874 269.206 44.0879 266.327 45.3476 263.808L74.8595 208.923C77.1989 204.784 83.4971 208.203 81.1578 212.342L51.6459 267.227C51.106 268.486 49.8464 269.206 48.5867 269.206Z" fill="white"/>
<path fill-rule="evenodd" clip-rule="evenodd" d="M170.413 269.206C169.154 269.206 167.894 268.486 167.354 267.407L136.223 212.882C133.883 208.743 140.182 205.144 142.521 209.283L173.472 263.808C174.912 266.147 173.113 269.206 170.413 269.206Z" fill="white"/>
<path fill-rule="evenodd" clip-rule="evenodd" d="M109.41 219C49.1265 219 0 169.873 0 109.41C0 49.1265 49.1265 0 109.41 0C169.873 0 219 49.1265 219 109.41C219 169.873 169.873 219 109.41 219ZM109.41 7.19803C53.0855 7.19803 7.19803 53.0855 7.19803 109.41C7.19803 165.915 53.0855 211.802 109.41 211.802C165.915 211.802 211.802 165.915 211.802 109.41C211.802 53.0855 165.915 7.19803 109.41 7.19803Z" fill="white"/>
<path fill-rule="evenodd" clip-rule="evenodd" d="M109.41 201.545C58.6639 201.545 17.4552 160.156 17.4552 109.41C17.4552 58.664 58.6639 17.4553 109.41 17.4553C160.156 17.4553 201.545 58.664 201.545 109.41C201.545 160.156 160.156 201.545 109.41 201.545ZM109.41 24.6533C62.6228 24.6533 24.6532 62.6229 24.6532 109.41C24.6532 156.197 62.6228 194.347 109.41 194.347C156.197 194.347 194.347 156.197 194.347 109.41C194.347 62.6229 156.197 24.6533 109.41 24.6533Z" fill="white"/>
<path fill-rule="evenodd" clip-rule="evenodd" d="M179.951 113.009C177.971 113.009 176.352 111.389 176.352 109.41C176.352 72.7 146.3 42.6482 109.41 42.6482C104.731 42.6482 104.731 35.4502 109.41 35.4502C150.259 35.4502 183.55 68.7411 183.55 109.41C183.55 111.389 181.93 113.009 179.951 113.009Z" fill="white"/>
<path fill-rule="evenodd" clip-rule="evenodd" d="M161.596 307.176C160.336 307.176 159.256 306.456 158.537 305.376L107.611 217.201C105.271 213.062 111.569 209.463 113.909 213.602L160.156 293.86L166.994 264.708C167.354 262.728 169.514 261.468 171.493 262.188L199.925 270.826L160.336 202.445C157.997 198.306 164.295 194.707 166.634 198.846L210.722 275.145C212.342 278.024 209.643 281.443 206.583 280.363L173.113 270.106L165.195 304.297C164.835 305.916 163.395 307.176 161.596 307.176Z" fill="white"/>
<path fill-rule="evenodd" clip-rule="evenodd" d="M57.2243 307.176C55.6048 307.176 54.1652 305.916 53.8053 304.297L45.8874 270.106L12.4166 280.363C9.35745 281.443 6.65819 278.024 8.27774 275.145L52.3657 198.846C54.705 194.707 61.0033 198.306 58.484 202.445L19.0748 270.826L47.507 262.188C49.4865 261.468 51.4659 262.728 52.0058 264.708L58.6639 293.86L105.091 213.602C107.431 209.463 113.729 213.062 111.21 217.201L60.2835 305.376C59.7436 306.456 58.484 307.176 57.2243 307.176Z" fill="white"/>
</svg>
