<svg width="338" height="328" viewBox="0 0 338 328" fill="none" xmlns="http://www.w3.org/2000/svg">
<path d="M33.984 184.062L26.304 229.118C25.792 231.166 26.816 233.214 28.352 234.238C29.888 235.262 31.936 235.262 33.984 234.75L74.432 213.758L93.888 223.998C96.448 225.534 99.52 224.51 101.056 221.95C102.592 219.39 101.568 216.318 99.008 214.782L76.992 203.006C75.456 201.982 73.92 201.982 72.384 203.006L38.08 220.414L44.224 183.038C44.736 181.502 43.712 179.454 42.688 178.43L15.552 152.318L52.928 147.198C54.464 147.198 56 145.662 57.024 144.638L73.92 110.846L80.064 123.646C81.088 126.206 84.16 127.23 86.72 126.206C89.28 125.182 90.304 122.11 89.28 119.55L78.528 97.5339C77.504 95.9979 75.968 94.4619 73.92 94.4619C71.872 94.4619 70.336 95.4859 69.312 97.5339L49.344 138.494L4.288 143.614C2.24 144.126 0.704001 145.15 0.192001 147.198C-0.319999 149.246 0.191997 151.294 1.728 152.318L33.984 184.062Z" fill="white"/>
<path d="M287.936 136.958L267.968 95.9978C266.944 94.4618 265.408 92.9258 263.36 92.9258C261.312 92.9258 259.776 93.9498 258.752 95.9978L248 118.014C246.976 120.574 248 123.646 250.56 124.67C253.12 125.694 256.192 124.67 257.216 122.11L263.36 109.31L280.256 143.102C280.768 144.638 282.304 145.662 284.352 145.662L321.728 151.294L294.592 177.406C293.568 178.43 293.056 180.478 293.056 182.014L299.2 219.39L265.92 203.006C264.384 201.982 262.848 201.982 261.312 203.006L239.296 214.782C236.736 216.318 235.712 219.39 237.248 221.95C238.784 224.51 241.856 225.534 243.904 223.998L263.36 213.758L303.296 234.75C303.808 235.262 304.832 235.262 305.856 235.262C308.928 235.262 311.488 232.19 310.976 229.118L303.296 184.062L336.064 152.318C337.6 150.782 338.112 148.734 337.6 147.198C337.088 145.662 335.04 143.614 332.992 143.614L287.936 136.958Z" fill="white"/>
<path d="M108.736 255.742C110.272 256.766 112.32 257.278 114.368 256.254L168.64 227.582L222.912 256.254C223.424 256.766 224.448 256.766 225.472 256.766C228.544 256.766 231.104 253.694 230.592 250.622L220.352 190.206L264.384 147.198C265.92 145.662 266.432 143.614 265.92 142.078C265.408 140.03 263.872 139.006 261.824 138.494L200.896 129.79L173.76 74.4939C172.736 72.9579 171.2 71.4219 169.152 71.4219C167.104 71.4219 165.568 72.4459 164.544 74.4939L137.408 129.79L75.968 138.494C73.92 139.006 72.384 140.03 71.872 142.078C71.36 144.126 71.872 146.174 73.408 147.198L117.44 190.206L107.2 250.622C106.176 252.67 107.2 254.718 108.736 255.742ZM87.744 147.198L140.992 139.518C142.528 139.518 144.064 137.982 145.088 136.958L169.152 88.8299L192.704 136.958C193.216 138.494 194.752 139.518 196.8 139.518L250.048 147.198L211.136 184.574C210.112 185.598 209.6 187.646 209.6 189.182L218.816 242.43L171.2 217.342C169.664 216.318 168.128 216.318 166.592 217.342L118.976 242.43L127.68 189.182C128.192 187.646 127.168 185.598 126.144 184.574L87.744 147.198Z" fill="white"/>
<path d="M122.46 309.76L141.793 286.56L149.657 293.114L130.324 316.313L122.46 309.76Z" fill="white"/>
<path d="M163.52 297.726H173.76V327.934H163.52V297.726Z" fill="white"/>
<path d="M187.458 293.145L195.322 286.591L214.655 309.791L206.791 316.344L187.458 293.145Z" fill="white"/>
<path d="M122.758 18.5854L130.622 12.0318L149.955 35.2316L142.091 41.7852L122.758 18.5854Z" fill="white"/>
<path d="M163.52 0.253906H173.76V30.4619H163.52V0.253906Z" fill="white"/>
<path d="M187.428 35.3147L206.761 12.115L214.626 18.6686L195.293 41.8683L187.428 35.3147Z" fill="white"/>
</svg>
