<svg width="46" height="46" viewBox="0 0 46 46" fill="none" xmlns="http://www.w3.org/2000/svg">
<g clip-path="url(#clip0_44_238)">
<path d="M46 45.5411C45.8004 45.8081 45.6115 46.0253 45.241 45.9973L0.636663 45.9873C0.325525 45.9384 0.101612 45.7112 0.0530532 45.3999C-0.0161887 44.95 -0.0242819 42.5784 0.0665419 42.172C0.258081 41.3112 1.34976 41.838 1.53411 41.5719C1.7841 41.2098 1.21038 38.6753 1.97744 38.6753H4.4009C4.4108 38.6753 4.53579 38.5495 4.53579 38.5396V36.1001C4.53579 35.6303 5.63377 35.5452 5.97189 35.6032V20.7873C5.64007 20.8045 4.53579 20.8751 4.53579 20.3809V17.8066H1.97834C1.75353 17.8066 1.59706 17.4264 1.57278 17.2209C1.52782 16.8407 1.53231 14.0302 1.62044 13.8328C1.9091 13.1875 3.15995 13.6572 3.66892 13.3658L22.6322 0.112233C22.8705 -0.0371208 23.1754 -0.0380259 23.4154 0.112233C29.8442 4.56387 36.2117 9.18841 42.7213 13.4717C43.1899 13.5043 44.1889 13.3006 44.4272 13.8328C44.5153 14.0302 44.5198 16.8407 44.4749 17.2209C44.4506 17.4264 44.2941 17.8066 44.0693 17.8066H41.5119V20.3809C41.5119 20.876 40.4076 20.8045 40.0758 20.7873V35.6032C40.4031 35.5244 41.5119 35.6747 41.5119 36.1001V38.5396C41.5119 38.5495 41.6369 38.6753 41.6467 38.6753H44.0702C44.8364 38.6753 44.2627 41.2098 44.5135 41.5719C44.6754 41.8054 45.8004 41.4026 46 42.1077V45.5411ZM5.97189 13.4699H14.8124C15.0228 13.4699 15.3105 13.9116 15.3105 14.1478C15.3105 14.3841 15.0228 14.8258 14.8124 14.8258H2.91985V16.4515H43.1278V14.8258H17.145C16.9346 14.8258 16.6468 14.3841 16.6468 14.1478C16.6468 13.9116 16.9346 13.4699 17.145 13.4699H40.1657L23.0549 1.56323L5.97189 13.4699ZM11.9842 17.8066H5.88106V19.4323H11.9842V17.8066ZM18.6261 17.8066H13.3313V20.1102C13.3313 20.9086 12.3565 20.8135 11.8053 20.7882V35.6041C12.3583 35.548 13.3313 35.6222 13.3313 36.3717V38.6753H18.6261V36.1906C18.6261 35.6828 19.7645 35.4991 20.1521 35.6032V20.9231C20.1521 20.6959 19.2591 20.8307 19.0487 20.7692C18.9309 20.7339 18.6261 20.3718 18.6261 20.2913V17.8066ZM26.0754 17.8066H19.9722V19.4323H26.0754V17.8066ZM32.7163 17.8066H27.4216V20.2913C27.4216 20.3718 27.1167 20.7348 26.9989 20.7692C26.7885 20.8316 25.8956 20.6968 25.8956 20.9231V35.6032C26.2822 35.4982 27.4216 35.6828 27.4216 36.1906V38.6753H32.7163V36.3717C32.7163 35.6213 33.6884 35.5471 34.2424 35.6041V20.7882C33.6911 20.8145 32.7163 20.9086 32.7163 20.1102V17.8066ZM40.1657 17.8066H34.0625V19.4323H40.1657V17.8066ZM10.4591 20.7882H7.31806V35.6041H10.4591V20.7882ZM24.5494 20.7882H21.4983V35.6041H24.5494V20.7882ZM38.7296 20.7882H35.5885V35.6041H38.7296V20.7882ZM11.9842 36.9591H5.88106V38.6753H11.9842V36.9591ZM26.0754 36.9591H19.9722V38.6753H26.0754V36.9591ZM40.1657 36.9591H34.0625V38.6753H40.1657V36.9591ZM43.1278 40.0304H2.91985V41.6561H43.1278V40.0304ZM44.6538 43.012H1.39383V44.6377H44.6529V43.012H44.6538Z" fill="white"/>
<path d="M25.1834 9.66273C25.1834 10.863 24.2167 11.8361 23.0243 11.8361C21.8319 11.8361 20.8652 10.863 20.8652 9.66273C20.8652 8.46247 21.8319 7.48941 23.0243 7.48941C24.2167 7.48941 25.1834 8.46247 25.1834 9.66273ZM23.8336 9.6754C23.8336 9.22553 23.4712 8.86075 23.0243 8.86075C22.5774 8.86075 22.215 9.22553 22.215 9.6754C22.215 10.1253 22.5774 10.4901 23.0243 10.4901C23.4712 10.4901 23.8336 10.1253 23.8336 9.6754Z" fill="white"/>
</g>
<defs>
<clipPath id="clip0_44_238">
<rect width="46" height="46" fill="white"/>
</clipPath>
</defs>
</svg>
