<svg width="270" height="280" viewBox="0 0 270 280" fill="none" xmlns="http://www.w3.org/2000/svg">
<path d="M189.98 77.8428C174.194 62.6009 153.508 54.9799 131.19 56.0686C90.363 58.2461 56.0686 93.0848 55.5243 134.456C54.9799 162.218 69.6775 188.347 93.6291 203.044C100.161 206.855 104.516 215.02 104.516 223.186V236.25C104.516 239.516 106.694 241.694 109.96 241.694C113.226 241.694 115.403 239.516 115.403 236.25V223.186C115.403 211.21 109.415 199.778 99.617 193.79C78.9315 181.27 66.4114 158.952 66.9557 134.456C67.5001 99.0727 96.8952 68.5888 132.278 66.9557C151.331 65.867 169.294 72.9436 182.903 86.0082C196.512 99.0727 204.133 116.492 204.133 135.544C204.133 159.496 192.157 180.726 172.016 193.79C161.673 200.323 155.686 211.21 155.686 223.73C155.686 226.996 157.863 229.173 161.129 229.173C164.395 229.173 166.573 226.996 166.573 223.73C166.573 215.565 170.928 207.944 178.004 203.044C201.411 188.347 215.565 163.307 215.565 135.544C214.476 113.226 205.766 92.5404 189.98 77.8428Z" fill="white"/>
<path d="M158.952 236.794L108.871 249.859C106.149 250.403 103.972 253.669 105.061 256.391C105.605 258.568 107.782 260.201 110.504 260.201H112.137L162.218 247.137C164.94 246.593 167.117 243.327 166.028 240.605C164.94 237.883 161.673 236.25 158.952 236.794Z" fill="white"/>
<path d="M158.952 255.847L108.871 268.911C106.149 269.456 103.972 272.722 105.061 275.443C105.605 277.621 107.782 279.254 110.504 279.254H112.137L162.218 266.189C164.94 265.645 167.117 262.379 166.028 259.657C164.94 256.935 161.673 255.302 158.952 255.847Z" fill="white"/>
<path d="M135 77.2983C103.428 77.2983 77.2985 102.883 77.2985 135C77.2985 138.266 79.4759 140.443 82.742 140.443C86.0081 140.443 88.1856 138.266 88.1856 135C88.1856 109.415 108.871 88.1854 135 88.1854C138.266 88.1854 140.444 86.008 140.444 82.7419C140.444 79.4758 138.266 77.2983 135 77.2983Z" fill="white"/>
<path d="M135 41.371C138.266 41.371 140.444 39.1936 140.444 35.9274V5.44355C140.444 2.17742 138.266 0 135 0C131.734 0 129.556 2.17742 129.556 5.44355V35.9274C129.556 38.6492 131.734 41.371 135 41.371Z" fill="white"/>
<path d="M60.9677 68.5888C62.0564 69.6775 63.6895 70.2218 64.7782 70.2218C65.8669 70.2218 67.5 69.6775 68.5887 68.5888C70.7661 66.4114 70.7661 63.1452 68.5887 60.9678L46.8145 39.1936C44.6371 37.0162 41.3709 37.0162 39.1935 39.1936C37.0161 41.371 37.0161 44.6372 39.1935 46.8146L60.9677 68.5888Z" fill="white"/>
<path d="M41.371 135C41.371 131.734 39.1936 129.556 35.9274 129.556H5.44355C2.17742 129.556 0 131.734 0 135C0 138.266 2.17742 140.443 5.44355 140.443H35.9274C38.6492 140.443 41.371 138.266 41.371 135Z" fill="white"/>
<path d="M60.9677 201.411L39.1935 223.186C37.0161 225.363 37.0161 228.629 39.1935 230.807C40.2822 231.895 41.9153 232.44 43.004 232.44C44.0927 232.44 45.7258 231.895 46.8145 230.807L68.5887 209.032C70.7661 206.855 70.7661 203.589 68.5887 201.411C66.4112 199.234 63.1451 199.234 60.9677 201.411Z" fill="white"/>
<path d="M209.032 201.411C206.855 199.234 203.589 199.234 201.411 201.411C199.234 203.589 199.234 206.855 201.411 209.032L223.186 230.807C224.274 231.895 225.907 232.44 226.996 232.44C228.085 232.44 229.718 231.895 230.806 230.807C232.984 228.629 232.984 225.363 230.806 223.186L209.032 201.411Z" fill="white"/>
<path d="M264.556 129.556H234.073C230.806 129.556 228.629 131.734 228.629 135C228.629 138.266 230.806 140.443 234.073 140.443H264.556C267.823 140.443 270 138.266 270 135C270 131.734 267.823 129.556 264.556 129.556Z" fill="white"/>
<path d="M205.222 70.2218C206.855 70.2218 207.944 69.6775 209.032 68.5888L230.806 46.8146C232.984 44.6372 232.984 41.371 230.806 39.1936C228.629 37.0162 225.363 37.0162 223.186 39.1936L201.411 60.9678C199.234 63.1452 199.234 66.4114 201.411 68.5888C202.5 69.6775 203.589 70.2218 205.222 70.2218Z" fill="white"/>
</svg>
