<svg width="46" height="37" viewBox="0 0 46 37" fill="none" xmlns="http://www.w3.org/2000/svg">
<g clip-path="url(#clip0_44_251)">
<path d="M3.02627 32.6958C1.80755 32.5045 0.567868 31.0831 0.487019 29.846L0.482029 3.05111C0.616777 1.34025 1.92034 0.10718 3.62016 0H42.2799C44.0256 0.053089 45.3661 1.29717 45.5168 3.04911L45.5118 29.844C45.5508 30.9238 44.0136 32.6938 42.9726 32.6938H41.2288V35.5926H45.5627C45.6007 35.5926 45.9001 35.9342 45.937 36.0194C46.1706 36.5573 45.7115 37.017 45.1695 36.997L0.73256 36.994C0.227505 36.9589 -0.155779 36.5192 0.0618144 36.0184C0.0987454 35.9332 0.398186 35.5916 0.436115 35.5916H4.77001V32.6928C4.23102 32.6337 3.54331 32.7739 3.02627 32.6928V32.6958ZM41.2298 31.2964H42.774C43.3169 31.2964 44.2203 30.1445 44.1224 29.5505V3.14928C44.0306 2.11254 43.305 1.45043 42.2789 1.40035H3.81879C2.75079 1.40636 1.97224 2.07247 1.87642 3.14928L1.88041 29.6467C1.83051 30.2146 2.71286 31.2954 3.2259 31.2954H4.77001V26.247C4.77001 26.0797 5.31499 25.8183 5.51462 25.7952C6.82317 25.64 9.84852 25.681 11.199 25.7932C11.3916 25.8092 11.6871 25.8333 11.8388 25.9515C11.9157 26.0116 12.1422 26.4894 12.1422 26.5475V31.2964H14.4339V17.0506C14.4339 16.721 14.9909 16.5217 15.2764 16.4956C16.6079 16.3744 19.763 16.3434 21.0616 16.4986C21.2622 16.5227 21.8062 16.7831 21.8062 16.9504V31.2964H24.1967V24.2486C24.1967 23.9271 24.7696 23.7298 25.0431 23.6987C26.3137 23.5545 29.3361 23.5705 30.6267 23.6937C30.984 23.7278 31.5679 23.9191 31.5679 24.3488V31.2964H33.8596V15.5511C33.8596 15.1163 34.3028 14.8429 34.704 14.7988C35.9288 14.6626 39.2705 14.6546 40.4862 14.7988C40.6869 14.8228 41.2308 15.0833 41.2308 15.2506V31.2964H41.2298ZM39.8355 16.2001H35.253V35.5946H39.8355V16.2001ZM15.8273 17.9V35.5946H20.4098V17.9H15.8273ZM30.1725 25.0981H25.5901V35.5956H30.1725V25.0981ZM10.7468 27.1966H6.16441V35.5946H10.7468V27.1966ZM12.1412 32.6958V35.5946H14.4329V32.6958H12.1412ZM21.8042 32.6958V35.5946H24.1947V32.6958H21.8042ZM31.5669 32.6958V35.5946H33.8586V32.6958H31.5669Z" fill="white"/>
<path d="M35.4877 6.83845C37.0178 5.26481 39.9912 6.01808 40.3885 8.19773C40.8217 10.5817 38.8703 12.3126 36.5686 11.6315C36.4039 11.5824 36.2253 11.4021 36.0985 11.4001C35.6993 11.3951 31.1857 16.4405 30.4171 17.0025C30.6737 17.891 30.9182 18.4559 30.6208 19.3985C29.5847 22.682 24.4613 21.7554 25.0013 17.9581C25.0522 17.5975 25.3935 17.2299 25.2428 16.9023L19.6483 11.4171C18.9506 11.7116 18.3826 11.8789 17.6151 11.7567C17.2657 11.7006 16.6918 11.347 16.4722 11.4933L10.9915 16.9043C11.0164 17.4252 11.2989 17.8759 11.3049 18.4669C11.3368 21.2456 7.79543 22.5007 6.11158 20.302C4.52854 18.2355 6.22936 15.2956 8.77859 15.6272C9.13393 15.6733 9.82364 16.0549 10.0452 15.9547L15.5809 10.4044C14.7993 8.84481 15.3453 6.81241 17.0531 6.18536C19.7171 5.20772 21.9001 7.95332 20.6544 10.4044C22.3003 11.911 23.7855 13.721 25.4364 15.2045C25.5632 15.3177 26.2908 15.9748 26.3497 15.9858C26.5464 16.0228 27.5275 15.4679 28.4628 15.6662C28.8541 15.7494 29.2054 16.108 29.5268 15.9087L35.0076 10.4004C35.0764 10.2602 34.7231 9.63414 34.6802 9.32762C34.5554 8.44815 34.8698 7.47352 35.4857 6.83945L35.4877 6.83845ZM19.6273 8.88789C19.6273 8.05148 18.9516 7.37335 18.1181 7.37335C17.2847 7.37335 16.609 8.05148 16.609 8.88789C16.609 9.72429 17.2847 10.4024 18.1181 10.4024C18.9516 10.4024 19.6273 9.72429 19.6273 8.88789ZM39.068 8.88889C39.068 8.05649 38.3952 7.38136 37.5658 7.38136C36.7363 7.38136 36.0636 8.05649 36.0636 8.88889C36.0636 9.72128 36.7363 10.3964 37.5658 10.3964C38.3952 10.3964 39.068 9.72128 39.068 8.88889ZM9.8995 18.512C9.8995 17.6786 9.22575 17.0025 8.39531 17.0025C7.56486 17.0025 6.89112 17.6786 6.89112 18.512C6.89112 19.3454 7.56486 20.0215 8.39531 20.0215C9.22575 20.0215 9.8995 19.3454 9.8995 18.512ZM29.3551 18.509C29.3551 17.6766 28.6834 17.0025 27.8539 17.0025C27.0245 17.0025 26.3527 17.6766 26.3527 18.509C26.3527 19.3414 27.0245 20.0155 27.8539 20.0155C28.6834 20.0155 29.3551 19.3414 29.3551 18.509Z" fill="white"/>
</g>
<defs>
<clipPath id="clip0_44_251">
<rect width="46" height="37" fill="white"/>
</clipPath>
</defs>
</svg>
