<svg width="232" height="226" viewBox="0 0 232 226" fill="none" xmlns="http://www.w3.org/2000/svg">
<path d="M229.934 220.822H216.292V41.9153C216.493 41.5626 216.607 41.1668 216.623 40.7613C216.639 40.3557 216.558 39.9521 216.385 39.5845C216.213 39.2169 215.955 38.8959 215.632 38.6486C215.31 38.4012 214.932 38.2347 214.532 38.163C213.883 37.9457 213.181 37.9457 212.532 38.163L162.896 41.1648C162.391 41.2041 161.907 41.3785 161.494 41.6695C161.08 41.9605 160.753 42.3574 160.547 42.8183C160.34 43.2793 160.262 43.7872 160.321 44.2886C160.38 44.7901 160.573 45.2664 160.88 45.6675C160.687 46.0435 160.589 46.4608 160.594 46.8832V219.771C160.59 220.132 160.662 220.49 160.805 220.822H144.666V65.4193C144.867 65.0666 144.981 64.6708 144.997 64.2653C145.013 63.8597 144.932 63.4562 144.759 63.0885C144.587 62.7209 144.329 62.3999 144.006 62.1526C143.684 61.9052 143.306 61.7387 142.906 61.667C142.257 61.4497 141.555 61.4497 140.906 61.667L91.2698 64.6688C90.7654 64.7081 90.2809 64.8825 89.8675 65.1735C89.4541 65.4645 89.127 65.8614 88.9207 66.3223C88.7143 66.7833 88.6364 67.2912 88.6951 67.7927C88.7538 68.2941 88.947 68.7704 89.2542 69.1715C89.0613 69.5475 88.9632 69.9648 88.9685 70.3872V220.822H73.7919V114.348C73.9933 113.996 74.1069 113.6 74.1232 113.194C74.1395 112.789 74.058 112.385 73.8856 112.018C73.7131 111.65 73.4548 111.329 73.1323 111.082C72.8098 110.834 72.4325 110.668 72.0321 110.596C71.3848 110.368 70.6789 110.368 70.0316 110.596L20.3958 113.598C19.8142 113.644 19.2621 113.873 18.8185 114.251C18.3748 114.629 18.0623 115.137 17.9255 115.703C17.7887 116.269 17.8346 116.864 18.0568 117.402C18.2789 117.941 18.6659 118.395 19.1624 118.701C18.8197 118.928 18.5413 119.239 18.3543 119.604C18.1672 119.97 18.0777 120.377 18.0945 120.787V220.462L2.66228 220.687C1.9562 220.687 1.27904 220.967 0.779766 221.465C0.28049 221.963 0 222.639 0 223.343C0 224.048 0.28049 224.724 0.779766 225.222C1.27904 225.72 1.9562 226 2.66228 226H229.934C230.521 225.865 231.045 225.536 231.42 225.066C231.796 224.595 232 224.012 232 223.411C232 222.81 231.796 222.227 231.42 221.756C231.045 221.286 230.521 220.957 229.934 220.822ZM94.2479 69.937L139.371 67.1603V220.822H94.3382V70.4323C94.3207 70.2651 94.2905 70.0995 94.2479 69.937ZM23.4191 220.822V120.922C23.4358 120.539 23.3597 120.158 23.1974 119.811C23.0351 119.463 22.7912 119.16 22.4865 118.926L68.4674 116.089V220.822H23.4191ZM165.724 220.822C165.86 220.488 165.931 220.132 165.934 219.771V47.0333C165.95 46.8485 165.95 46.6628 165.934 46.478L211.058 43.7013V220.807L165.724 220.822Z" fill="white"/>
<path d="M106.502 36.6478C107.626 37.7148 108.955 38.5433 110.408 39.0837C111.86 39.6241 113.408 39.8651 114.956 39.7923C117.767 39.5717 120.416 38.39 122.457 36.446C124.498 34.5021 125.807 31.9147 126.163 29.1192C126.378 29.1036 126.59 29.0682 126.798 29.0134C143.435 24.4781 160.298 19.9427 177.524 17.796C178.208 17.7193 178.839 17.3905 179.294 16.8738C180.203 18.5439 181.546 19.9383 183.181 20.9103C184.595 21.6649 186.15 22.1198 187.749 22.2467C189.347 22.3735 190.954 22.1695 192.47 21.6474C193.986 21.1253 195.378 20.2963 196.559 19.2122C197.74 18.1282 198.684 16.8124 199.333 15.347C199.857 13.8677 200.076 12.2978 199.977 10.7318C199.877 9.16575 199.462 7.63603 198.755 6.23479C198.049 4.83354 197.066 3.58978 195.865 2.57844C194.665 1.5671 193.272 0.809127 191.771 0.350177C189.909 -0.138366 187.95 -0.115335 186.1 0.416837C184.25 0.949009 182.578 1.97058 181.26 3.37372C180.685 3.55617 180.185 3.92269 179.838 4.41684C178.693 6.0299 177.999 7.91897 177.827 9.88946C177.827 10.2069 177.706 10.5244 177.676 10.8419C177.632 11.2352 177.678 11.6333 177.812 12.0059V12.4595H177.449C159.799 14.6818 142.603 19.2171 125.392 23.8431C124.366 21.3768 122.537 19.3295 120.2 18.034C117.864 16.7386 115.157 16.2711 112.521 16.7076C110.45 17.1985 108.558 18.2608 107.061 19.7735C105.563 21.2862 104.521 23.1885 104.052 25.2642C103.482 25.3609 102.973 25.6753 102.631 26.1409C102.29 26.6065 102.143 27.1867 102.222 27.7586C102.35 29.3272 102.749 30.8617 103.401 32.2939L46.5804 75.8934C46.1119 76.2428 45.7632 76.7287 45.5822 77.2843C43.9683 76.0269 42.0132 75.2842 39.9712 75.1527C37.246 75.0987 34.6011 76.077 32.5674 77.8911C30.5337 79.7053 29.2615 82.2211 29.0063 84.9338C28.9979 85.0748 28.9979 85.2161 29.0063 85.3571C28.9987 85.4174 28.9987 85.4783 29.0063 85.5385C28.9987 85.5988 28.9987 85.6597 29.0063 85.7199C28.999 85.8609 28.999 86.0022 29.0063 86.1432C29.249 88.7843 30.4508 91.2451 32.3845 93.0611C34.3183 94.877 36.8502 95.9225 39.5024 96C42.2415 95.8909 44.838 94.7503 46.7708 92.8071C48.7035 90.864 49.8296 88.262 49.9228 85.5234C49.9117 83.8577 49.4855 82.221 48.6827 80.7613C48.901 80.6771 49.105 80.5598 49.2876 80.4136L106.502 36.6478ZM190.773 5.61114C191.563 5.9261 192.28 6.40093 192.877 7.00583C193.475 7.61073 193.941 8.33262 194.247 9.12619C194.552 9.91976 194.69 10.7679 194.652 11.6172C194.614 12.4666 194.4 13.299 194.025 14.0619C193.147 15.4411 191.762 16.4192 190.168 16.7842C188.574 17.1492 186.901 16.8718 185.51 16.0121C184.527 15.2633 183.798 14.2317 183.419 13.056C183.041 11.8804 183.031 10.617 183.393 9.43592C183.919 7.9895 184.97 6.79356 186.337 6.08515C187.704 5.37673 189.287 5.20755 190.773 5.61114ZM113.051 22.1046C113.922 21.9005 114.826 21.88 115.705 22.0444C116.584 22.2087 117.42 22.5543 118.158 23.0592C118.897 23.5641 119.522 24.2171 119.994 24.9768C120.466 25.7364 120.774 26.586 120.9 27.4714C120.932 29.1279 120.358 30.7393 119.286 32.003C118.214 33.2666 116.717 34.0958 115.077 34.3348C113.958 34.4413 112.83 34.258 111.803 33.8026C110.775 33.3472 109.882 32.635 109.209 31.7346C109.487 31.1694 109.531 30.5175 109.33 29.9204C108.831 28.3892 108.939 26.7251 109.631 25.271C110.323 23.8168 111.547 22.6835 113.051 22.1046ZM34.2997 85.7351C34.2997 85.7351 34.2997 85.6141 34.2997 85.5536C34.307 85.4934 34.307 85.4325 34.2997 85.3722C34.8744 79.0077 44.5841 79.1135 44.5538 85.5839C44.5236 92.0543 34.8442 92.145 34.2997 85.7351Z" fill="white"/>
</svg>
