<svg width="257" height="258" viewBox="0 0 257 258" fill="none" xmlns="http://www.w3.org/2000/svg">
<path d="M236.918 59.8243C235.83 58.1224 233.567 57.6263 231.865 58.7145C230.165 59.8027 229.667 62.0654 230.755 63.7674C243.139 83.1259 249.684 105.643 249.684 128.884C249.684 161.254 237.079 191.687 214.191 214.575C191.303 237.463 160.87 250.068 128.5 250.068C96.1299 250.068 65.697 237.463 42.8092 214.575C19.9213 191.687 7.31557 161.254 7.31557 128.884C7.31557 96.5139 19.9213 66.0811 42.8092 43.1932C65.697 20.3053 96.1299 7.69961 128.5 7.69961C151.382 7.69961 173.605 14.0583 192.762 26.0876C194.474 27.1621 196.73 26.6444 197.805 24.9346C198.879 23.2229 198.364 20.9661 196.652 19.8916C176.327 7.12903 152.76 0.384033 128.5 0.384033C94.177 0.384033 61.9069 13.7505 37.6367 38.0207C13.3665 62.2909 0 94.561 0 128.884C0 163.207 13.3665 195.477 37.6367 219.747C61.9069 244.018 94.177 257.384 128.5 257.384C162.823 257.384 195.093 244.018 219.363 219.747C243.634 195.477 257 163.207 257 128.884C257 104.245 250.055 80.3632 236.918 59.8243Z" fill="white"/>
<path d="M178.452 54.4888C179.514 52.7586 178.985 50.4873 177.269 49.4168C162.557 40.2368 145.589 35.384 128.2 35.384C102.637 35.384 78.7788 45.5971 61.0253 64.1409C59.624 65.6044 59.6632 67.9369 61.1174 69.3511C61.8268 70.0404 62.742 70.384 63.6553 70.384C64.6116 70.384 65.568 70.0068 66.2853 69.2583C82.6512 52.1661 104.638 42.753 128.2 42.753C144.227 42.753 159.864 47.2245 173.42 55.6817C175.136 56.7522 177.388 56.2189 178.452 54.4888Z" fill="white"/>
<path d="M54.3345 77.9459C52.6207 76.8695 50.3612 77.3861 49.2854 79.099C39.9411 93.9752 35 111.169 35 128.823C35 180.411 76.9453 222.384 128.5 222.384C180.055 222.384 222 180.411 222 128.823C222 111.356 217.157 94.317 207.995 79.5469C206.929 77.8281 204.67 77.2977 202.952 78.3663C201.234 79.4349 200.706 81.692 201.772 83.4128C210.214 97.02 214.676 112.723 214.676 128.823C214.676 176.371 176.017 215.055 128.5 215.055C80.9834 215.055 42.3243 176.371 42.3243 128.823C42.3243 112.55 46.8747 96.7057 55.4848 82.9983C56.5626 81.2854 56.0463 79.0224 54.3345 77.9459Z" fill="white"/>
<path d="M147.202 72.9748C147.724 71.0118 146.556 68.9975 144.595 68.4772C139.37 67.0877 133.956 66.384 128.5 66.384C94.0364 66.384 66 94.4204 66 128.884C66 163.348 94.0364 191.384 128.5 191.384C162.964 191.384 191 163.348 191 128.884C191 123.582 190.334 118.316 189.021 113.229C188.515 111.262 186.51 110.079 184.543 110.586C182.578 111.094 181.396 113.099 181.902 115.066C183.059 119.552 183.646 124.203 183.646 128.884C183.646 159.291 158.907 184.031 128.5 184.031C98.0906 184.031 73.3535 159.291 73.3535 128.884C73.3535 98.4766 98.0926 73.7376 128.5 73.7376C133.317 73.7376 138.096 74.3584 142.704 75.5823C144.667 76.1046 146.682 74.9378 147.202 72.9748Z" fill="white"/>
<path d="M128.5 105.588C130.489 105.588 132.102 103.975 132.102 101.986C132.102 99.9966 130.489 98.384 128.5 98.384C111.683 98.384 98 112.067 98 128.884C98 145.701 111.683 159.384 128.5 159.384C145.317 159.384 159 145.701 159 128.884C159 126.895 157.387 125.282 155.398 125.282C153.409 125.282 151.796 126.895 151.796 128.884C151.796 141.729 141.345 152.181 128.5 152.181C115.655 152.181 105.204 141.729 105.204 128.884C105.204 116.039 115.655 105.588 128.5 105.588Z" fill="white"/>
<path d="M199.351 41.4602L199.524 41.6311L196.416 44.7412L196.243 44.5664C194.812 43.137 192.493 43.137 191.063 44.5664C189.634 45.9978 189.634 48.3166 191.063 49.746L191.236 49.9188L188.128 53.0269L187.955 52.8541C186.526 51.4247 184.205 51.4247 182.776 52.8541C181.717 53.9124 181.444 55.4577 181.953 56.7692L151.786 73.0128C151.099 73.382 150.547 73.9631 150.213 74.668L125.35 127.155C123.912 130.19 127.178 133.479 130.227 132.032L182.715 107.171C183.422 106.835 184.001 106.285 184.372 105.596L200.616 75.4318C201.04 75.5967 201.49 75.6811 201.939 75.6811C202.878 75.6811 203.814 75.3238 204.529 74.6071C205.96 73.1778 205.96 70.8589 204.529 69.4276L204.356 69.2548L207.464 66.1486L207.637 66.3214C208.352 67.0361 209.29 67.3934 210.227 67.3934C211.164 67.3934 212.102 67.0361 212.817 66.3214C214.246 64.8901 214.246 62.5712 212.817 61.1418L212.644 60.969L215.752 57.8609L215.925 58.0337C216.64 58.7484 217.576 59.1057 218.515 59.1057C219.452 59.1057 220.388 58.7484 221.103 58.0337C222.073 57.0638 222.383 55.6874 222.039 54.4563C229.32 55.654 236.854 53.3332 242.206 47.9809C246.587 43.6004 249 37.7768 249 31.5802C249 25.3835 246.587 19.56 242.206 15.1776C237.824 10.7971 232 8.38403 225.803 8.38403C219.607 8.38403 213.783 10.7971 209.402 15.1776C204.05 20.5299 201.731 28.0656 202.927 35.3441C201.696 35.0005 200.319 35.3107 199.349 36.2787C197.92 37.7101 197.92 40.0289 199.351 41.4602ZM156.318 78.8914L187.074 62.3317L188.474 63.7316L141.022 111.182L156.318 78.8914ZM178.493 101.067L146.202 116.362L193.653 68.9112L195.053 70.3111L178.493 101.067ZM199.179 64.0772L193.308 58.2065L196.416 55.0983L202.287 60.969L199.179 64.0772ZM207.466 55.7895L201.596 49.9188L204.704 46.8126L210.573 52.6813L207.466 55.7895ZM214.582 20.3591C217.578 17.3609 221.564 15.7097 225.805 15.7097C230.045 15.7097 234.03 17.3609 237.027 20.3591C240.025 23.3553 241.676 27.3411 241.676 31.5802C241.676 35.8212 240.025 39.807 237.027 42.8032C232.566 47.2642 225.884 48.6582 220.005 46.3551C218.65 45.825 217.109 46.147 216.08 47.1758L215.754 47.5018L209.883 41.6311L210.209 41.3051C211.238 40.2763 211.56 38.735 211.03 37.3802C208.727 31.4997 210.121 24.82 214.582 20.3591Z" fill="white"/>
</svg>
