<svg width="290" height="249" viewBox="0 0 290 249" fill="none" xmlns="http://www.w3.org/2000/svg">
<path d="M144.969 0.0334473C107.85 0.0334473 70.73 14.1784 42.438 42.4714C-14.146 99.0554 -14.146 190.949 42.438 247.534C44.389 249.489 47.556 249.491 49.51 247.54C51.464 245.589 51.467 242.422 49.516 240.468C49.514 240.466 49.512 240.464 49.51 240.462C-3.253 187.699 -3.253 102.307 49.51 49.5444C102.273 -3.21855 187.665 -3.21855 240.428 49.5444C293.191 102.307 293.191 187.699 240.428 240.462C238.473 242.413 238.469 245.579 240.42 247.534C242.371 249.489 245.537 249.493 247.492 247.542C247.495 247.539 247.497 247.537 247.5 247.534C304.084 190.95 304.084 99.0564 247.5 42.4714C219.209 14.1784 182.089 0.0334473 144.969 0.0334473ZM144.969 15.3464C112.343 15.3464 79.698 27.8044 54.813 52.6904C5.042 102.461 5.042 183.231 54.813 233.002C55.769 233.998 57.352 234.03 58.348 233.074C59.344 232.118 59.376 230.535 58.42 229.539C58.397 229.515 58.373 229.491 58.348 229.467C10.488 181.606 10.488 104.087 58.348 56.2274C82.278 32.2974 113.615 20.3464 144.969 20.3464C146.35 20.3664 147.485 19.2624 147.504 17.8814C147.523 16.5004 146.42 15.3654 145.039 15.3464C145.017 15.3454 144.993 15.3454 144.969 15.3464ZM224.872 59.9534C223.573 59.9924 222.34 60.5354 221.434 61.4674L158.733 124.168C154.778 121.541 150.046 120.002 144.969 120.002C131.221 120.002 119.969 131.254 119.969 145.002C119.969 158.75 131.221 170.002 144.969 170.002C158.717 170.002 169.969 158.75 169.969 145.002C169.969 139.926 168.43 135.193 165.803 131.238L228.504 68.5374C231.775 65.3584 229.431 59.8194 224.872 59.9534ZM144.969 130.002C153.312 130.002 159.969 136.659 159.969 145.002C159.969 153.345 153.312 160.002 144.969 160.002C136.626 160.002 129.969 153.345 129.969 145.002C129.969 136.659 136.626 130.002 144.969 130.002ZM144.969 132.502C138.095 132.502 132.469 138.128 132.469 145.002C132.449 146.383 133.553 147.518 134.934 147.537C136.315 147.557 137.45 146.453 137.469 145.072C137.469 145.048 137.469 145.025 137.469 145.001C137.469 140.829 140.797 137.501 144.969 137.501C146.35 137.521 147.485 136.417 147.504 135.036C147.524 133.655 146.42 132.52 145.039 132.501C145.017 132.501 144.993 132.501 144.969 132.502Z" fill="white"/>
</svg>
