<svg width="208" height="209" viewBox="0 0 208 209" fill="none" xmlns="http://www.w3.org/2000/svg">
<path d="M136.064 129.847C150.893 129.847 165.721 124.203 177.01 112.914C187.947 101.977 193.97 87.4353 193.97 71.9681C193.97 56.5008 187.947 41.9602 177.01 31.0225C154.433 8.44642 117.697 8.44551 95.1196 31.0225C84.1828 41.9593 78.1594 56.5008 78.1594 71.9681C78.1594 87.4344 84.1828 101.976 95.1196 112.914C106.409 124.203 121.237 129.847 136.064 129.847ZM101.537 37.4406C111.056 27.9214 123.56 23.1613 136.064 23.1613C148.568 23.1613 161.073 27.9214 170.592 37.4406C179.815 46.663 184.894 58.9249 184.894 71.9681C184.894 85.0113 179.814 97.2731 170.592 106.496C151.553 125.535 120.574 125.535 101.537 106.496C92.3135 97.2722 87.2349 85.0104 87.2349 71.9681C87.2349 58.9258 92.3135 46.663 101.537 37.4406Z" fill="white"/>
<path d="M20.0957 206.705C20.9824 207.59 22.1431 208.033 23.3048 208.033C24.4665 208.033 25.6272 207.59 26.5139 206.705L78.7457 154.473C80.5181 152.7 80.5181 149.827 78.7457 148.056L72.5708 141.881L88.4963 125.955C102.048 137.911 119.052 143.903 136.065 143.903C154.495 143.903 172.924 136.888 186.955 122.858C215.015 94.7974 215.015 49.1398 186.955 21.0795C173.362 7.48632 155.289 0 136.066 0C116.843 0 98.7697 7.48632 85.1765 21.0795C58.1953 48.0617 57.1725 91.3052 82.0791 119.538L66.1535 135.463L59.9786 129.289C59.1273 128.437 57.9738 127.96 56.7695 127.96C55.5652 127.96 54.4117 128.438 53.5605 129.289L1.32865 181.52C0.477372 182.372 0 183.525 0 184.729C0 185.934 0.478279 187.087 1.32865 187.939L20.0957 206.705ZM91.5929 27.4967C103.472 15.6179 119.266 9.07543 136.064 9.07543C152.863 9.07543 168.657 15.617 180.536 27.4967C205.058 52.0185 205.058 91.9187 180.536 116.44C156.014 140.962 116.114 140.963 91.5929 116.44C67.0711 91.9187 67.0711 52.0185 91.5929 27.4967ZM56.7686 138.915L62.9435 145.09L69.1185 151.265L23.3048 197.079L10.9549 184.729L56.7686 138.915Z" fill="white"/>
<path d="M153.386 110.453C154.08 110.453 154.785 110.293 155.446 109.955C159.413 107.931 163.035 105.292 166.212 102.116C179.576 88.7523 182.53 67.8788 173.396 51.3552C172.184 49.1626 169.424 48.3676 167.229 49.5791C165.036 50.7916 164.241 53.5524 165.453 55.7459C166.226 57.1426 166.881 58.5801 167.435 60.0449C172.041 72.2133 169.185 86.3092 159.795 95.6986C158.425 97.0681 156.942 98.2978 155.378 99.4023C154.082 100.317 152.733 101.151 151.32 101.873C149.088 103.012 148.202 105.745 149.342 107.978C150.143 109.548 151.735 110.453 153.386 110.453Z" fill="white"/>
<path d="M130.153 114.193C132.114 114.466 134.089 114.604 136.065 114.604C137.863 114.604 139.662 114.49 141.449 114.264C143.935 113.949 145.695 111.678 145.381 109.193C145.067 106.707 142.789 104.95 140.31 105.26C137.353 105.636 134.358 105.617 131.406 105.205C128.927 104.857 126.631 106.591 126.286 109.073C125.939 111.555 127.67 113.848 130.153 114.193Z" fill="white"/>
</svg>
