<svg width="235" height="234" viewBox="0 0 235 234" fill="none" xmlns="http://www.w3.org/2000/svg">
<path fill-rule="evenodd" clip-rule="evenodd" d="M117.5 87.5625C124.008 87.5625 130.369 89.4915 135.78 93.1056C141.192 96.7197 145.409 101.857 147.899 107.867C150.39 113.877 151.042 120.49 149.772 126.87C148.503 133.251 145.369 139.111 140.768 143.711C136.166 148.311 130.304 151.444 123.921 152.714C117.538 153.983 110.922 153.332 104.91 150.843C98.8972 148.354 93.7581 144.138 90.1422 138.73C86.5263 133.321 84.5961 126.962 84.5956 120.457C84.5953 111.733 88.0619 103.366 94.2326 97.1976C100.403 91.0287 108.773 87.5629 117.5 87.5625ZM66.4213 107.166C68.814 95.3879 75.2063 84.7991 84.5153 77.1934C93.8243 69.5878 105.477 65.4329 117.5 65.4329C129.523 65.4329 141.176 69.5878 150.485 77.1934C159.794 84.7991 166.187 95.3879 168.579 107.166C173.006 102.543 178.99 99.7234 185.375 99.2517C191.76 98.7799 198.093 100.689 203.152 104.611C208.211 108.533 211.637 114.19 212.769 120.488C213.901 126.787 212.658 133.282 209.281 138.719H215.625C219.034 138.707 222.3 137.348 224.71 134.938C227.121 132.528 228.48 129.263 228.492 125.856V109.216C228.481 105.808 227.121 102.543 224.711 100.134C222.3 97.7238 219.034 96.3646 215.625 96.3525H192.683V96.3437C192.028 96.3433 191.39 96.1352 190.861 95.7494C190.332 95.3636 189.939 94.82 189.739 94.1967C188.84 91.4072 186.605 85.6646 185.215 83.2255C184.839 82.6305 184.677 81.9254 184.755 81.226C184.833 80.5266 185.146 79.8745 185.644 79.3769L201.869 63.1578C204.271 60.7391 205.619 57.4695 205.619 54.0617C205.619 50.6538 204.271 47.3842 201.869 44.9655L190.098 33.1975C187.679 30.7969 184.408 29.4497 180.999 29.4497C177.59 29.4497 174.319 30.7969 171.9 33.1975L155.674 49.4166L155.666 49.4082C155.204 49.8696 154.608 50.1728 153.963 50.2745C153.318 50.3761 152.657 50.2709 152.076 49.974C149.397 48.6037 143.938 46.2017 141.076 45.3976C140.397 45.236 139.793 44.8504 139.36 44.3029C138.928 43.7554 138.692 43.0782 138.692 42.3805V19.4484C138.68 16.0405 137.32 12.7756 134.909 10.3659C132.498 7.95621 129.232 6.59715 125.823 6.58516H109.177C105.768 6.59728 102.502 7.95641 100.091 10.3661C97.6807 12.7758 96.321 16.0406 96.3089 19.4484V42.381H96.301C96.3008 43.0357 96.0927 43.6734 95.7067 44.2023C95.3207 44.7312 94.7768 45.1241 94.1532 45.3242C91.3626 46.2228 85.6193 48.4588 83.1778 49.8462C82.5825 50.2219 81.8771 50.384 81.1775 50.306C80.4779 50.228 79.8256 49.9145 79.3277 49.417L63.1009 33.1975C60.6814 30.7969 57.4106 29.4497 54.0015 29.4497C50.5925 29.4497 47.3217 30.7969 44.9021 33.1975L33.1311 44.9645C30.7294 47.3831 29.3816 50.6528 29.3816 54.0607C29.3816 57.4685 30.7294 60.7382 33.1311 63.1568L49.3564 79.3754L49.348 79.3842C49.8096 79.8459 50.1129 80.4419 50.2146 81.0866C50.3163 81.7313 50.211 82.3917 49.914 82.9729C48.5432 85.6514 46.1408 91.1057 45.3354 93.9682C45.1738 94.6469 44.7879 95.2513 44.2403 95.6837C43.6926 96.1162 43.0151 96.3515 42.3171 96.3515H19.3758C15.9666 96.3637 12.7006 97.7228 10.2899 100.132C7.87932 102.542 6.51967 105.807 6.50754 109.215V125.854C6.51954 129.262 7.87913 132.527 10.2898 134.937C12.7004 137.347 15.9665 138.706 19.3758 138.718H25.7188C22.3415 133.281 21.0989 126.786 22.2309 120.487C23.3629 114.188 26.7892 108.532 31.8484 104.61C36.9076 100.688 43.2409 98.7788 49.6257 99.2507C56.0105 99.7226 61.9941 102.543 66.4213 107.166ZM163.367 115.132C156.323 132.065 168.769 150.942 187.285 150.942C193.356 150.951 199.235 148.819 203.888 144.92H215.625C220.679 144.907 225.523 142.894 229.096 139.322C232.67 135.749 234.684 130.908 234.696 125.855V109.216C234.684 104.163 232.67 99.3215 229.097 95.7488C225.523 92.1762 220.679 90.1633 215.625 90.1504H194.899C193.944 87.4405 192.842 84.7848 191.596 82.1953L206.256 67.5418C209.821 63.9605 211.822 59.1136 211.822 54.0612C211.822 49.0087 209.821 44.1618 206.256 40.5805L194.485 28.8135C190.902 25.2496 186.053 23.2488 180.999 23.2488C175.945 23.2488 171.096 25.2496 167.513 28.8135L152.854 43.4675C150.264 42.2226 147.607 41.1204 144.896 40.166V19.4484C144.883 14.396 142.869 9.55418 139.295 5.98165C135.721 2.40912 130.877 0.396566 125.823 0.384033H109.177C104.123 0.396695 99.2791 2.40931 95.7052 5.98182C92.1312 9.55434 90.1177 14.3961 90.1049 19.4484V40.166C87.3938 41.1204 84.7371 42.2226 82.1467 43.4675L67.4871 28.8135C63.9045 25.2497 59.0558 23.249 54.0015 23.249C48.9472 23.249 44.0986 25.2497 40.516 28.8135L28.7449 40.58C25.1796 44.1613 23.178 49.0082 23.178 54.0607C23.178 59.1131 25.1796 63.96 28.7449 67.5413L43.404 82.1948C42.1588 84.7842 41.0564 87.4399 40.1018 90.1499H19.3758C14.3215 90.1627 9.47786 92.1754 5.90397 95.748C2.33009 99.3206 0.316699 104.162 0.304032 109.215V125.854C0.316569 130.907 2.3299 135.749 5.9038 139.321C9.4777 142.894 14.3214 144.907 19.3758 144.92H31.112C35.5592 148.63 41.1224 150.743 46.9123 150.921C52.7023 151.099 58.3848 149.331 63.0515 145.901C67.7182 142.47 71.0996 137.575 72.6553 131.997C74.2111 126.419 73.8512 120.481 71.6334 115.132C72.2524 103.39 77.3548 92.3326 85.8885 84.2398C94.4223 76.1471 105.737 71.6356 117.5 71.6356C129.263 71.6356 140.578 76.1471 149.111 84.2398C157.645 92.3326 162.748 103.39 163.367 115.132ZM73.6823 164.933C69.7075 162.889 65.2993 161.829 60.8293 161.844H34.6023C27.078 161.869 19.8688 164.867 14.5483 170.186C9.22785 175.504 6.22814 182.71 6.204 190.232V193.749C13.0054 200.102 21.1746 204.81 30.0827 207.511C38.9907 210.211 48.3999 210.832 57.5858 209.326C56.7731 208.547 56.0573 207.937 56.0573 206.546V200.228C56.0655 193.383 57.6614 186.634 60.7195 180.51C63.7777 174.386 68.2148 169.054 73.6823 164.933V164.933ZM66.0448 208.597C64.752 207.52 63.4901 206.4 62.2593 205.238V200.228C62.2915 190.14 66.3148 180.474 73.451 173.341C80.5873 166.207 90.2568 162.185 100.349 162.153H134.646C155.428 162.153 172.735 179.086 172.735 200.228V205.234L168.997 208.548L169.002 208.555L163.197 212.962C149.304 222.542 132.749 227.513 115.875 227.173C99.0009 226.834 82.6605 221.2 69.1644 211.069L66.0448 208.597ZM63.4436 214.449C52.4615 217.095 40.9886 216.922 30.0909 213.948C19.1933 210.974 9.22436 205.295 1.11038 197.439C0.762581 197.148 0.482865 196.785 0.290997 196.374C0.0991282 195.964 -0.000210518 195.516 3.34959e-07 195.063V190.232C0.0251965 181.066 3.67892 172.283 10.1627 165.802C16.6465 159.321 25.4331 155.669 34.6023 155.644H60.8288C67.4664 155.653 73.9606 157.575 79.5338 161.179C85.9337 157.742 93.0868 155.946 100.352 155.952H134.649C141.909 155.96 149.055 157.757 155.456 161.183C161.029 157.569 167.529 155.645 174.172 155.644H200.398C202.671 155.644 204.938 155.868 207.167 156.315V156.326C209.392 156.776 211.569 157.44 213.666 158.309C219.968 160.944 225.352 165.378 229.147 171.056C232.941 176.734 234.977 183.404 235 190.232V195.062H234.991C234.992 195.475 234.909 195.885 234.748 196.265C234.588 196.646 234.352 196.991 234.055 197.279L230.174 200.784L230.169 200.778C214.067 214.334 192.083 219.384 171.552 214.448C156.205 226.707 137.144 233.384 117.499 233.384C97.8535 233.384 78.7924 226.707 63.4451 214.448L63.4436 214.449ZM61.6385 111.144C64.392 113.896 66.2671 117.403 67.0268 121.221C67.7865 125.038 67.3966 128.995 65.9064 132.592C64.4162 136.188 61.8926 139.262 58.6549 141.424C55.4171 143.587 51.6105 144.741 47.7165 144.741C43.8225 144.741 40.0159 143.587 36.7781 141.424C33.5404 139.262 31.0168 136.188 29.5266 132.592C28.0365 128.995 27.6465 125.038 28.4062 121.221C29.1659 117.403 31.041 113.896 33.7945 111.144C37.487 107.453 42.4948 105.38 47.7165 105.38C52.9382 105.38 57.946 107.453 61.6385 111.144ZM177.415 209.326C186.025 210.738 194.838 210.282 203.256 207.99C211.674 205.698 219.501 201.623 226.206 196.042L226.201 196.036L228.796 193.745V190.232C228.775 183.672 226.492 177.319 222.332 172.246C218.171 167.173 212.388 163.689 205.957 162.382V162.393C204.127 162.028 202.266 161.844 200.4 161.844H174.172C169.699 161.837 165.289 162.897 161.309 164.937C166.776 169.059 171.213 174.39 174.272 180.513C177.332 186.636 178.93 193.384 178.943 200.228V206.545H178.934C178.934 207.894 178.257 208.518 177.414 209.326L177.415 209.326ZM201.209 111.144C203.962 113.896 205.838 117.403 206.597 121.221C207.357 125.038 206.967 128.995 205.477 132.592C203.987 136.188 201.463 139.262 198.225 141.424C194.988 143.587 191.181 144.741 187.287 144.741C183.393 144.741 179.586 143.587 176.349 141.424C173.111 139.262 170.587 136.188 169.097 132.592C167.607 128.995 167.217 125.038 167.977 121.221C168.736 117.403 170.611 113.896 173.365 111.144C177.057 107.453 182.065 105.379 187.287 105.379C192.509 105.379 197.517 107.453 201.209 111.144ZM136.383 101.581C132.649 97.8485 127.891 95.3065 122.712 94.2767C117.532 93.2468 112.164 93.7754 107.285 95.7956C102.406 97.8158 98.2359 101.237 95.302 105.626C92.3681 110.015 90.8021 115.176 90.8021 120.454C90.8021 125.733 92.3681 130.894 95.302 135.283C98.2359 139.672 102.406 143.093 107.285 145.113C112.164 147.134 117.532 147.662 122.712 146.632C127.891 145.603 132.649 143.06 136.383 139.328C141.39 134.322 144.203 127.533 144.202 120.454C144.202 113.375 141.388 106.586 136.381 101.581H136.383Z" fill="white"/>
</svg>
