<svg width="222" height="205" viewBox="0 0 222 205" fill="none" xmlns="http://www.w3.org/2000/svg">
<path fill-rule="evenodd" clip-rule="evenodd" d="M150.596 167.267L145.479 140.836C145.013 138.43 146.588 136.099 148.994 135.633C151.4 135.167 153.732 136.742 154.197 139.148C157.004 153.646 159.759 167.876 159.759 167.876C160.034 169.298 159.599 170.765 158.592 171.806C137.525 193.592 112.63 204.384 79.9527 204.384C47.2439 204.384 22.3233 193.634 1.24601 171.804C0.251811 170.775 -0.185353 169.329 0.0727887 167.921C0.0727887 167.921 6.02362 135.393 9.09894 118.589C10.4903 110.982 15.7411 104.646 22.9587 101.868C35.4557 97.0556 56.1246 89.0964 56.1246 89.0964C58.2265 88.2868 60.6017 89.1803 61.6495 91.1735C61.6495 91.1735 67.3909 102.12 79.6051 102.12C91.9543 102.12 98.2672 91.032 98.2672 91.032C99.3613 89.1236 101.688 88.3036 103.736 89.1044C103.736 89.1044 118.608 94.9178 130.617 99.6114C132.9 100.503 134.028 103.081 133.136 105.363C132.244 107.645 129.667 108.774 127.384 107.882L103.711 98.6284C100.048 103.18 91.9535 111 79.6051 111C67.2846 111 59.5396 103.264 56.0191 98.6524L26.1499 110.154C21.819 111.822 18.6686 115.623 17.8334 120.188L9.22282 167.248C28.2462 186.214 50.726 195.504 79.9527 195.504C109.139 195.504 131.588 186.181 150.596 167.267Z" fill="white"/>
<path fill-rule="evenodd" clip-rule="evenodd" d="M133.2 186.48V155.4C133.2 152.949 131.21 150.96 128.76 150.96C126.309 150.96 124.319 152.949 124.319 155.4V186.48C124.319 188.931 126.309 190.92 128.76 190.92C131.21 190.92 133.2 188.931 133.2 186.48Z" fill="white"/>
<path fill-rule="evenodd" clip-rule="evenodd" d="M26.6398 155.4V186.48C26.6398 188.931 28.6298 190.92 31.0801 190.92C33.5305 190.92 35.5197 188.931 35.5197 186.48V155.4C35.5197 152.949 33.5305 150.96 31.0801 150.96C28.6298 150.96 26.6398 152.949 26.6398 155.4Z" fill="white"/>
<path fill-rule="evenodd" clip-rule="evenodd" d="M79.92 0C88.0582 0 99.2662 3.02097 104.334 7.09209C110.642 12.159 113.525 19.2583 114.707 26.5182C115.762 32.9893 115.44 39.5436 115.44 44.4003C115.44 56.1054 108.218 69.6446 99.3669 78.5405C93.0148 84.9245 85.7869 88.7998 79.92 88.7998C74.0522 88.7998 66.8251 84.9245 60.473 78.5405C51.6219 69.6446 44.3995 56.1054 44.3995 44.4003C44.3995 44.4003 44.2101 32.1806 45.1324 26.5182C46.3152 19.2583 49.1979 12.159 55.5052 7.09209C60.7376 2.8899 71.7817 0 79.92 0ZM53.2802 44.4003C53.2802 44.4003 52.927 33.8996 53.8972 27.9464C54.7388 22.7812 56.5785 17.6199 61.0668 14.0156C65.0876 10.7852 71.0976 8.8799 79.92 8.8799C88.7423 8.8799 94.7515 10.7852 98.7731 14.0156C103.261 17.6199 105.101 22.7812 105.943 27.9464C106.913 33.8996 106.56 39.932 106.56 44.4003C106.56 54.0067 100.336 64.9765 93.0716 72.2772C88.6776 76.6935 83.9791 79.9199 79.92 79.9199C75.8608 79.9199 71.1623 76.6935 66.7683 72.2772C59.5036 64.9765 53.2802 54.0067 53.2802 44.4003Z" fill="white"/>
<path fill-rule="evenodd" clip-rule="evenodd" d="M88.7279 105.766C88.3443 103.655 86.5054 102.12 84.3595 102.12H75.4796C73.3338 102.12 71.4956 103.655 71.1112 105.766L62.2313 154.606C62.0107 155.822 62.3064 157.075 63.0481 158.064L76.3675 175.824C77.2067 176.942 78.5222 177.6 79.92 177.6C81.3178 177.6 82.6332 176.942 83.4716 175.824L96.7919 158.064C97.5335 157.075 97.8292 155.822 97.6078 154.606L88.7279 105.766ZM79.1855 111L71.315 154.287L79.92 165.76L88.525 154.287L80.6544 111H79.1855Z" fill="white"/>
<path fill-rule="evenodd" clip-rule="evenodd" d="M173.16 53.2803C146.204 53.2803 124.319 75.1647 124.319 102.12C124.319 129.076 146.204 150.96 173.16 150.96C200.116 150.96 222 129.076 222 102.12C222 75.1647 200.116 53.2803 173.16 53.2803ZM173.16 62.1602C195.214 62.1602 213.12 80.0654 213.12 102.12C213.12 124.175 195.214 142.08 173.16 142.08C151.105 142.08 133.2 124.175 133.2 102.12C133.2 80.0654 151.105 62.1602 173.16 62.1602Z" fill="white"/>
<path fill-rule="evenodd" clip-rule="evenodd" d="M168.469 113.35L191.988 85.9108C193.584 84.0503 196.389 83.8345 198.249 85.4289C200.11 87.0233 200.326 89.8293 198.731 91.6898L172.091 122.77C171.286 123.708 170.126 124.269 168.89 124.316C167.654 124.364 166.455 123.894 165.581 123.019L152.26 109.7C150.528 107.967 150.528 105.153 152.26 103.42C153.993 101.688 156.807 101.688 158.54 103.42L168.469 113.35Z" fill="white"/>
</svg>
